# xmcd
#
# Track frame offsets: 
#        150
#        20663
#        35217
#        56579
#        72606
#        91125
#        109650
#        128425
#        147212
#        167703
#        189943
#        212075
#        234411
#        256641
#        276760
#        296927
#        320305
#
# Disc length: 4552 seconds
#
# Revision: 0
# Processed by: cddbd v1.5.2PL0 Copyright (c) Steve Scherf et al.
# Submitted via: ExactAudioCopyFreeDBPlugin 1.0
#
DISCID=f711c611
DTITLE=Siti Nurhaliza - Koloborasi Siti Nurhaliza Dengan Penyanyi Buka
DTITLE=n Melayu
DYEAR=2010
DGENRE=Pop
TTITLE0=Zheng Fu 征服
TTITLE1=Yue Liang Dai Biao Wo De Xin 月亮代表我的心
TTITLE2=Siti Nurhaliza and Ciang Teng - Rindu Antara Kita
TTITLE3=The Colour Of My Love
TTITLE4=Beradu Di Khayalan
TTITLE5=Don't Put My Heart On Hold
TTITLE6=Satu Cinta Dua Jiwa
TTITLE7=We'll Be As One
TTITLE8=Because You Loved Me
TTITLE9=Kedamaian
TTITLE10=Siti Nurhaliza and Candy Cheah - Xin Yuan (Kedamaian) 心願 
TTITLE11=Cindai
TTITLE12=Qian Bai Hui - Wen Xin De Ai (Cindai) 温馨的爱
TTITLE13=Bukan Cinta Biasa
TTITLE14=Qian Bai Hui - Zhong Qing 種情 (Bukan Cinta Biasa)
TTITLE15=Tirai Semalam
TTITLE16=Qian Bai Hui - Shang Qiu (Tirai Semalam) 傷秋
EXTD=
EXTT0=
EXTT1=
EXTT2=
EXTT3=
EXTT4=
EXTT5=
EXTT6=
EXTT7=
EXTT8=
EXTT9=
EXTT10=
EXTT11=
EXTT12=
EXTT13=
EXTT14=
EXTT15=
EXTT16=
PLAYORDER=
